<svg width="212" height="40" viewBox="0 0 212 40" fill="none" xmlns="http://www.w3.org/2000/svg">
<path d="M43.862 20.6754C43.862 24.3949 41.4997 26.8114 37.9354 26.8114C34.371 26.8114 32.0564 24.3949 32.0564 20.6754V6.70813H27.1411V20.6754C27.1411 26.7617 31.5298 30.9175 37.9831 30.9175C44.3905 30.9175 48.7754 26.7617 48.7754 20.6754V6.70813H43.862V20.6754Z" fill="#335CFF"/>
<path d="M63.7138 22.8966L56.2931 6.70984H51.04L61.4011 27.8253L55.2322 39.9998H60.4375L76.1929 6.70984H71.0391L63.7138 22.8966Z" fill="#335CFF"/>
<path d="M206.094 6.70984L198.769 22.8966L191.348 6.70984H186.097L196.456 27.8253L190.289 39.9998H195.493L211.25 6.70984H206.094Z" fill="#335CFF"/>
<path d="M150.041 8.70563C147.961 7.0392 145.377 6.13113 142.714 6.1303C136.083 6.1303 130.706 11.6789 130.706 18.5114C130.706 25.3439 136.083 30.8907 142.714 30.8907C149.345 30.8907 154.722 25.342 154.722 18.5114C154.722 18.4349 154.722 18.3603 154.722 18.2857V0H150.041V8.70563ZM142.832 26.4747C138.444 26.4747 135.269 23.1398 135.269 18.454C135.269 13.8161 138.448 10.4334 142.832 10.4334C147.267 10.4334 150.446 13.8161 150.446 18.454C150.44 23.1398 147.261 26.4747 142.832 26.4747Z" fill="#335CFF"/>
<path d="M4.68444 0H0V18.2857C0 18.3603 0 18.4349 0 18.5114C0 25.3497 5.37518 30.8907 12.0078 30.8907C18.6404 30.8907 24.0137 25.342 24.0137 18.5114C24.0137 11.6809 18.6385 6.1303 12.0078 6.1303C9.34621 6.13199 6.76408 7.04002 4.68444 8.70563V0ZM4.28564 18.454C4.28564 13.8161 7.46457 10.4334 11.899 10.4334C16.2877 10.4334 19.4628 13.8161 19.4628 18.454C19.4628 23.1398 16.2839 26.4747 11.899 26.4747C7.46075 26.4747 4.28182 23.1398 4.28182 18.454H4.28564Z" fill="#335CFF"/>
<path d="M178.238 8.70563C176.158 7.03948 173.575 6.13141 170.912 6.1303C164.28 6.1303 158.905 11.6789 158.905 18.5114C158.905 25.3439 164.28 30.8907 170.912 30.8907C177.545 30.8907 182.918 25.342 182.918 18.5114C182.918 18.4349 182.918 18.3603 182.918 18.2857V0H178.238V8.70563ZM171.023 26.4747C166.634 26.4747 163.459 23.1398 163.459 18.454C163.459 13.8161 166.638 10.4334 171.023 10.4334C175.457 10.4334 178.636 13.8161 178.636 18.454C178.636 23.1398 175.461 26.4747 171.023 26.4747Z" fill="#335CFF"/>
<path d="M122.463 20.6754C122.463 24.3949 120.101 26.8114 116.535 26.8114C112.968 26.8114 110.656 24.3949 110.656 20.6754V6.70813H105.742V20.6754C105.742 26.7617 110.131 30.9175 116.584 30.9175C122.992 30.9175 127.376 26.7617 127.376 20.6754V6.70813H122.463V20.6754Z" fill="#335CFF"/>
<path d="M78.676 22.5887H86.5165V30.7931H90.9853C97.6237 30.7931 102.625 25.1583 102.625 18.4579C102.625 11.6407 97.263 6.11308 90.6514 6.11308C87.9964 6.11368 85.4204 7.01833 83.3452 8.67885V0H78.676V22.5887ZM90.9853 26.3771V18.4713H82.9464C82.9464 18.4445 82.9464 18.4196 82.9464 18.3928C82.9464 13.7683 86.1177 10.3951 90.5388 10.3951C94.9122 10.3951 98.0816 13.7683 98.0816 18.3928C98.0797 22.9044 95.1298 26.1571 90.9853 26.3771V26.3771Z" fill="#335CFF"/>
</svg>
